<mxfile host="app.diagrams.net" modified="2023-08-29T11:33:03.835Z" agent="Mozilla/5.0 (Windows NT 10.0; Win64; x64) AppleWebKit/537.36 (KHTML, like Gecko) Chrome/116.0.0.0 Safari/537.36" etag="fW8Fdm6q9vCvmUXGo1KT" version="21.6.9" type="device">
  <diagram name="Página-1" id="mlMj5w5KnbGRlU1zVi5i">
    <mxGraphModel dx="1050" dy="574" grid="1" gridSize="10" guides="1" tooltips="1" connect="1" arrows="1" fold="1" page="1" pageScale="1" pageWidth="827" pageHeight="1169" math="0" shadow="0">
      <root>
        <mxCell id="0" />
        <mxCell id="1" parent="0" />
        <mxCell id="abdPt3TWHZEVfJF2_TQh-1" value="&lt;font style=&quot;vertical-align: inherit;&quot;&gt;&lt;font style=&quot;vertical-align: inherit;&quot;&gt;Time&lt;/font&gt;&lt;/font&gt;" style="swimlane;fontStyle=1;align=center;verticalAlign=top;childLayout=stackLayout;horizontal=1;startSize=26;horizontalStack=0;resizeParent=1;resizeParentMax=0;resizeLast=0;collapsible=1;marginBottom=0;whiteSpace=wrap;html=1;" parent="1" vertex="1">
          <mxGeometry x="330" y="250" width="190" height="206" as="geometry" />
        </mxCell>
        <mxCell id="abdPt3TWHZEVfJF2_TQh-2" value="&lt;font style=&quot;vertical-align: inherit;&quot;&gt;&lt;font style=&quot;vertical-align: inherit;&quot;&gt;&lt;font style=&quot;vertical-align: inherit;&quot;&gt;&lt;font style=&quot;vertical-align: inherit;&quot;&gt;&lt;font style=&quot;vertical-align: inherit;&quot;&gt;&lt;font style=&quot;vertical-align: inherit;&quot;&gt;&amp;nbsp;+Jogadores :String&lt;/font&gt;&lt;/font&gt;&lt;br&gt;&lt;/font&gt;&lt;/font&gt;&lt;font style=&quot;vertical-align: inherit;&quot;&gt;&lt;font style=&quot;vertical-align: inherit;&quot;&gt;&amp;nbsp;+Patrocino : String&lt;br&gt;&lt;/font&gt;&lt;/font&gt;&lt;font style=&quot;vertical-align: inherit;&quot;&gt;&lt;font style=&quot;vertical-align: inherit;&quot;&gt;&amp;nbsp;+Campos : String&amp;nbsp;&lt;br&gt;&lt;/font&gt;&lt;/font&gt;&lt;font style=&quot;vertical-align: inherit;&quot;&gt;&lt;font style=&quot;vertical-align: inherit;&quot;&gt;&amp;nbsp;+Estádio : String&lt;br&gt;&lt;/font&gt;&lt;/font&gt;&amp;nbsp;+Técnico :String&lt;br&gt;&amp;nbsp;+Departamento medico : String&lt;br&gt;&amp;nbsp;+Confiança : String&lt;br&gt;&lt;/font&gt;&lt;/font&gt;" style="text;strokeColor=none;fillColor=none;align=left;verticalAlign=top;spacingLeft=4;spacingRight=4;overflow=hidden;rotatable=0;points=[[0,0.5],[1,0.5]];portConstraint=eastwest;whiteSpace=wrap;html=1;" parent="abdPt3TWHZEVfJF2_TQh-1" vertex="1">
          <mxGeometry y="26" width="190" height="114" as="geometry" />
        </mxCell>
        <mxCell id="abdPt3TWHZEVfJF2_TQh-3" value="" style="line;strokeWidth=1;fillColor=none;align=left;verticalAlign=middle;spacingTop=-1;spacingLeft=3;spacingRight=3;rotatable=0;labelPosition=right;points=[];portConstraint=eastwest;strokeColor=inherit;" parent="abdPt3TWHZEVfJF2_TQh-1" vertex="1">
          <mxGeometry y="140" width="190" height="8" as="geometry" />
        </mxCell>
        <mxCell id="abdPt3TWHZEVfJF2_TQh-4" value="&lt;font style=&quot;vertical-align: inherit;&quot;&gt;&lt;font style=&quot;vertical-align: inherit;&quot;&gt;+Ganhar () partidas () : Void&lt;br&gt;+Ganhar títulos () : Void&lt;br&gt;+Ganhar dinheiros () : Void&lt;br&gt;&lt;/font&gt;&lt;/font&gt;" style="text;strokeColor=none;fillColor=none;align=left;verticalAlign=top;spacingLeft=4;spacingRight=4;overflow=hidden;rotatable=0;points=[[0,0.5],[1,0.5]];portConstraint=eastwest;whiteSpace=wrap;html=1;" parent="abdPt3TWHZEVfJF2_TQh-1" vertex="1">
          <mxGeometry y="148" width="190" height="58" as="geometry" />
        </mxCell>
        <mxCell id="q3WeP8K-uTpCB4raGfna-5" value="Leão" style="swimlane;fontStyle=1;align=center;verticalAlign=top;childLayout=stackLayout;horizontal=1;startSize=26;horizontalStack=0;resizeParent=1;resizeParentMax=0;resizeLast=0;collapsible=1;marginBottom=0;whiteSpace=wrap;html=1;" vertex="1" parent="1">
          <mxGeometry x="600" y="260" width="140" height="220" as="geometry" />
        </mxCell>
        <mxCell id="q3WeP8K-uTpCB4raGfna-6" value="+Velocidade&lt;br&gt;+Mordida&lt;br&gt;+Altura&lt;br&gt;+Peso&lt;br&gt;+Cor&lt;br&gt;+Rugido" style="text;align=left;verticalAlign=top;spacingLeft=4;spacingRight=4;overflow=hidden;rotatable=0;points=[[0,0.5],[1,0.5]];portConstraint=eastwest;whiteSpace=wrap;html=1;strokeWidth=5;" vertex="1" parent="q3WeP8K-uTpCB4raGfna-5">
          <mxGeometry y="26" width="140" height="94" as="geometry" />
        </mxCell>
        <mxCell id="q3WeP8K-uTpCB4raGfna-7" value="" style="line;strokeWidth=1;fillColor=none;align=left;verticalAlign=middle;spacingTop=-1;spacingLeft=3;spacingRight=3;rotatable=0;labelPosition=right;points=[];portConstraint=eastwest;strokeColor=inherit;" vertex="1" parent="q3WeP8K-uTpCB4raGfna-5">
          <mxGeometry y="120" width="140" height="30" as="geometry" />
        </mxCell>
        <mxCell id="q3WeP8K-uTpCB4raGfna-12" value="&lt;font style=&quot;vertical-align: inherit;&quot;&gt;&lt;font style=&quot;vertical-align: inherit;&quot;&gt;+Correr(): Void&lt;br&gt;+Pular(): Void&lt;br&gt;+Caçar(): Void&lt;br&gt;+Morder(): Void&lt;br&gt;&lt;/font&gt;&lt;/font&gt;" style="text;strokeColor=none;fillColor=none;align=left;verticalAlign=top;spacingLeft=4;spacingRight=4;overflow=hidden;rotatable=0;points=[[0,0.5],[1,0.5]];portConstraint=eastwest;whiteSpace=wrap;html=1;strokeWidth=1;" vertex="1" parent="q3WeP8K-uTpCB4raGfna-5">
          <mxGeometry y="150" width="140" height="70" as="geometry" />
        </mxCell>
      </root>
    </mxGraphModel>
  </diagram>
</mxfile>
